<svg id="Layer_1" data-name="Layer 1" xmlns="http://www.w3.org/2000/svg" viewBox="0 0 64 50.76"><defs><style>.cls-1{fill:#46509e;}</style></defs><path class="cls-1" d="M18.66,32.53,9.94,31.36c.37-2.2.6-4.19,1.07-6.13a24.37,24.37,0,0,1,3.53-7.85,23.94,23.94,0,0,1,7.6-7.09,24.37,24.37,0,0,1,9.55-3.38,24.54,24.54,0,0,1,11.18.79c3,1,5.7,2.44,7.54,5.07a10.65,10.65,0,0,1,1.28,10.45c-2,5.17-6.09,8.21-10.77,10.66a36.2,36.2,0,0,1-9.12,3.44c-3,.65-6.08,1.1-9.13,1.6-.92.16-1.87.19-3.14.32a53.22,53.22,0,0,0,2.6,5.18c3.11,4.79,7.65,7.07,13.31,7.4S46,50,50.32,46.37a26.83,26.83,0,0,0,8.29-12.43c.61-1.85,1.83-2.67,3.35-2.3a2.63,2.63,0,0,1,1.79,3.75,56.89,56.89,0,0,1-3.36,7.1A29.69,29.69,0,0,1,49.92,53,31.08,31.08,0,0,1,39.1,57,28.33,28.33,0,0,1,29,56.87a23.47,23.47,0,0,1-7.77-3A22.25,22.25,0,0,1,13.42,46a26,26,0,0,1-2.8-7.1,1.29,1.29,0,0,0-.8-.71,21.17,21.17,0,0,1-7.08-3.31A15.25,15.25,0,0,1,.44,32.5,2,2,0,0,1,0,31.1a3.07,3.07,0,0,1,.81-1.64c.17-.16,1,.16,1.36.43A25.35,25.35,0,0,0,14.05,34c6.79.68,13.17-.77,19.37-3.36a24.27,24.27,0,0,0,7.91-5.14c1.88-1.88,3.24-4,3.05-6.87a6.88,6.88,0,0,0-6.08-6.17,15.89,15.89,0,0,0-13.22,3.9,16.81,16.81,0,0,0-4.33,5.76A24.26,24.26,0,0,0,18.66,32.53Z" transform="translate(0 -6.62)"/></svg>